<?xml version="1.0" standalone="no"?>
<!DOCTYPE svg PUBLIC "-//W3C//DTD SVG 20010904//EN"
 "http://www.w3.org/TR/2001/REC-SVG-20010904/DTD/svg10.dtd">
<svg version="1.0" xmlns="http://www.w3.org/2000/svg"
 width="700.000000pt" height="700.000000pt" viewBox="0 0 700.000000 700.000000"
 preserveAspectRatio="xMidYMid meet">
<metadata>
Created by potrace 1.11, written by Peter Selinger 2001-2013
</metadata>
<g transform="translate(0.000000,700.000000) scale(0.100000,-0.100000)"
fill="#000000" stroke="none">
<path d="M3215 6979 c-38 -4 -95 -10 -125 -14 -56 -5 -105 -12 -150 -21 -14
-3 -45 -7 -70 -10 -140 -18 -512 -128 -705 -209 -329 -136 -674 -348 -940
-577 -80 -69 -307 -296 -379 -381 -291 -340 -525 -757 -664 -1187 -37 -115
-83 -283 -97 -355 -17 -95 -35 -198 -40 -241 -4 -27 -8 -56 -10 -64 -25 -101
-26 -786 0 -830 1 -3 6 -32 9 -65 4 -33 8 -67 10 -75 1 -8 6 -37 10 -65 5 -27
17 -88 28 -135 11 -47 21 -94 24 -106 7 -37 65 -227 94 -311 90 -255 232 -538
380 -758 28 -41 53 -81 56 -88 4 -12 -30 -91 -176 -402 -56 -118 -81 -177 -78
-180 4 -2 75 -35 213 -98 55 -26 118 -55 140 -66 l40 -20 27 57 c15 31 55 117
89 189 l63 133 105 -103 c58 -56 153 -141 210 -187 57 -47 117 -96 132 -110
l27 -25 -38 -80 c-72 -150 -130 -276 -130 -283 0 -6 119 -63 435 -207 l70 -32
69 149 c38 82 73 151 78 154 4 3 32 -6 61 -19 165 -79 225 -103 384 -158 168
-58 367 -110 513 -133 19 -4 44 -8 56 -10 12 -2 45 -7 74 -11 29 -4 60 -8 70
-10 132 -25 694 -26 825 -1 11 2 45 7 76 10 31 4 67 9 80 11 13 3 51 10 84 16
271 49 581 150 843 274 61 30 112 50 112 45 0 -5 28 -69 63 -142 34 -73 67
-143 72 -155 11 -24 11 -24 285 104 36 17 102 48 148 69 45 21 82 41 82 45 0
7 -32 77 -130 285 -44 94 -46 102 -29 112 39 25 259 214 336 289 l82 80 15
-36 c8 -20 40 -90 71 -156 31 -66 61 -130 66 -142 5 -13 13 -23 18 -23 10 0
69 27 273 123 l117 55 -124 268 c-69 147 -125 271 -125 276 0 5 20 37 44 71
120 170 246 397 338 611 68 159 151 401 173 506 2 8 11 47 20 85 23 97 52 257
60 335 4 36 9 73 11 84 21 113 21 631 -1 744 -2 11 -6 43 -10 73 -53 449 -227
949 -472 1354 -52 85 -194 292 -233 338 -10 12 -51 63 -93 112 -441 531 -1083
937 -1767 1119 -119 32 -315 71 -400 81 -19 2 -75 9 -125 15 -106 14 -549 20
-650 9z m580 -92 c17 -3 57 -7 90 -11 33 -4 103 -14 155 -22 52 -9 109 -18
125 -20 67 -11 278 -68 405 -110 349 -116 681 -291 977 -515 59 -46 119 -92
133 -105 14 -12 50 -44 80 -71 353 -310 670 -751 860 -1198 101 -235 195 -555
224 -760 4 -22 8 -51 11 -65 7 -42 13 -91 20 -165 3 -38 8 -85 10 -103 l5 -32
-817 2 -816 3 -58 125 c-90 194 -124 266 -180 385 -28 61 -64 138 -80 173 -66
143 -92 198 -197 422 -60 129 -120 258 -132 285 -13 28 -49 105 -82 173 -32
68 -58 125 -58 127 0 1 -23 51 -51 110 -33 72 -48 116 -45 131 3 12 28 69 55
126 27 56 92 198 146 313 53 116 119 257 146 313 27 57 49 107 49 111 0 5 -60
35 -132 69 -73 33 -187 85 -253 116 l-120 56 -12 -27 c-16 -36 -101 -218 -164
-352 -27 -57 -49 -105 -49 -106 0 -2 -28 -63 -63 -137 -35 -73 -153 -325 -262
-560 -110 -236 -202 -428 -206 -428 -3 0 -20 30 -37 68 -38 83 -109 234 -173
370 -27 57 -49 105 -49 106 0 2 -24 55 -54 117 -29 63 -97 209 -151 324 -53
116 -113 244 -132 285 -98 207 -117 248 -134 287 l-18 43 -63 -29 c-62 -28
-123 -56 -268 -123 -41 -20 -97 -46 -125 -58 -27 -13 -51 -24 -53 -25 -2 -1
38 -88 198 -430 18 -38 47 -101 65 -140 18 -38 49 -105 69 -148 20 -42 36 -79
36 -81 0 -5 -117 -258 -250 -541 -23 -49 -55 -117 -70 -150 -15 -33 -47 -100
-70 -150 -23 -49 -61 -133 -85 -185 -24 -52 -73 -157 -109 -233 -36 -76 -66
-140 -66 -142 0 -2 -31 -69 -70 -150 -38 -81 -70 -148 -70 -150 0 -2 -31 -70
-70 -151 -38 -80 -70 -148 -70 -149 0 -1 -24 -54 -53 -116 -61 -128 -79 -167
-185 -394 -41 -88 -85 -185 -99 -215 -14 -30 -43 -93 -65 -140 -22 -47 -69
-148 -105 -225 -36 -77 -80 -171 -98 -210 -18 -38 -75 -162 -128 -275 -52
-113 -112 -241 -132 -285 -21 -44 -58 -123 -82 -175 -24 -52 -47 -90 -51 -84
-30 44 -102 155 -102 158 0 2 -19 35 -42 72 -133 220 -293 622 -353 891 -13
60 -35 162 -39 188 -3 17 -8 41 -11 54 -2 13 -7 49 -10 80 -3 31 -8 65 -10 76
-18 88 -26 483 -12 660 6 90 22 227 32 275 2 14 6 36 9 50 13 82 19 111 33
165 81 328 152 525 293 800 527 1035 1567 1732 2730 1831 41 3 76 7 78 9 4 3
474 -4 507 -8z m-716 -2163 l122 -261 -40 -84 c-21 -46 -101 -217 -176 -379
-132 -284 -160 -344 -247 -530 -40 -84 -71 -152 -127 -272 -16 -35 -48 -103
-71 -153 -94 -200 -130 -277 -130 -280 0 -1 -31 -69 -70 -149 -38 -81 -70
-149 -70 -151 0 -1 -24 -54 -54 -116 -30 -63 -69 -148 -89 -189 -38 -82 -81
-174 -135 -290 -62 -133 -142 -306 -197 -425 -15 -33 -43 -94 -63 -135 -19
-41 -52 -111 -72 -155 -21 -44 -57 -120 -80 -170 -23 -49 -55 -118 -71 -153
-29 -64 -32 -65 -69 -36 -8 7 -51 41 -95 76 -44 35 -138 120 -210 189 l-129
126 58 129 c77 166 120 259 195 418 34 70 61 130 61 131 0 2 23 52 51 111 66
141 108 230 179 384 61 132 120 258 175 375 18 39 63 135 100 215 37 80 83
179 102 220 40 84 49 103 231 495 72 154 148 318 170 365 22 47 51 110 65 140
29 64 61 132 228 489 27 57 49 105 49 106 0 2 27 61 61 132 34 70 72 153 86
183 13 30 29 66 36 79 13 27 -11 75 226 -435z m1212 35 c77 -167 156 -335 174
-374 40 -86 157 -339 195 -420 15 -33 48 -104 73 -158 l46 -97 -306 2 -306 3
-174 374 -174 374 86 184 c91 194 138 295 187 403 l30 65 14 -26 c7 -14 77
-163 155 -330z m-762 -1000 c16 -45 15 -47 -23 -47 -32 0 -34 2 -25 22 5 11
12 29 15 39 9 26 21 21 33 -14z m209 -478 c13 -1 28 -30 207 -416 54 -115 114
-246 135 -290 21 -44 97 -208 170 -365 73 -157 150 -323 172 -370 22 -47 53
-112 68 -145 15 -33 45 -96 65 -140 21 -44 50 -107 65 -140 16 -33 47 -100 70
-150 23 -49 53 -115 67 -145 14 -30 46 -98 70 -150 169 -360 223 -479 223
-486 0 -11 -138 -77 -286 -137 -209 -85 -536 -177 -719 -201 -17 -3 -52 -7
-80 -11 -27 -3 -61 -8 -75 -11 -151 -24 -660 -24 -788 1 -12 2 -47 6 -79 10
-32 3 -65 8 -73 10 -8 2 -26 6 -40 9 -14 2 -43 7 -65 11 -81 14 -313 75 -415
109 -125 41 -241 87 -373 149 l-97 46 34 73 c75 164 226 489 266 573 100 212
123 263 146 312 13 29 36 79 51 110 15 32 27 60 28 63 1 3 27 59 58 124 31 65
57 120 57 122 0 2 32 69 70 150 39 80 70 148 70 150 0 1 29 64 65 139 36 76
65 139 65 140 0 2 32 69 70 150 39 81 70 148 70 150 0 2 29 65 65 140 36 75
65 137 65 139 0 14 131 275 139 277 9 3 408 3 459 0z m1243 -8 c4 -5 30 -57
57 -118 27 -60 77 -168 111 -239 34 -70 61 -130 61 -131 0 -2 26 -59 59 -126
32 -68 83 -178 114 -244 30 -66 74 -160 97 -210 23 -49 70 -151 105 -225 34
-74 81 -173 103 -220 21 -47 49 -106 60 -131 12 -25 46 -100 77 -165 75 -157
135 -290 135 -298 0 -19 -247 -247 -366 -338 l-62 -47 -27 61 c-15 33 -50 109
-77 167 -28 58 -76 162 -108 231 -32 69 -74 160 -94 203 -76 162 -109 234
-133 287 -14 30 -50 107 -81 170 -30 63 -62 133 -72 155 -10 22 -65 142 -124
267 -106 226 -127 272 -206 443 -22 50 -61 133 -86 185 -130 275 -151 325
-138 330 21 8 587 1 595 -7z m1901 -48 c-1 -27 -7 -84 -12 -125 -6 -41 -12
-91 -14 -110 -18 -143 -98 -460 -156 -620 -17 -47 -35 -96 -39 -110 -47 -141
-223 -476 -354 -669 l-36 -55 -32 70 c-43 96 -215 465 -356 763 -29 62 -53
115 -53 116 0 2 -25 56 -56 121 -31 66 -85 182 -121 259 -36 77 -81 174 -100
215 -20 41 -48 103 -64 138 l-28 63 712 -3 712 -3 -3 -50z"/>
</g>
</svg>
